<svg xmlns="http://www.w3.org/2000/svg" width="24" height="24" fill="#fff" viewBox="0 0 32 32"><path d="M18.766 8.723v2.654a.512.512 0 0 1-.256.443l-6.468 3.734a.512.512 0 0 0 0 .887l6.468 3.734c.158.092.256.26.256.443v2.654c0 .394-.427.64-.768.443l-12.6-7.275a.512.512 0 0 1 0-.887l12.6-7.275a.512.512 0 0 1 .768.443z"/><path d="m18.51 20.175-.76-.439a.567.567 0 0 0-.01.044l.131.076c.158.092.256.26.256.443v2.654a.51.51 0 0 1-.577.504l.449.259a.512.512 0 0 0 .768-.443v-2.654a.512.512 0 0 0-.256-.443zM12.042 15.555l6.468-3.734a.513.513 0 0 0 .256-.443V8.724a.51.51 0 0 0-.669-.484.513.513 0 0 1 .029.164v2.654a.512.512 0 0 1-.256.443l-6.468 3.734a.602.602 0 0 0-.256.443c-.018.292.195.469.215.486l.613.425a.243.243 0 0 1 .006-.163l.012-.022a.509.509 0 0 1 .05-.848zM27.539 8.723v2.654a.512.512 0 0 1-.256.443l-6.468 3.734a.512.512 0 0 0 0 .887l6.468 3.734c.158.092.256.26.256.443v2.654c0 .394-.427.64-.768.443L14.17 16.44a.512.512 0 0 1 0-.887l12.6-7.275a.512.512 0 0 1 .768.443z"/><path d="m27.283 20.175-.76-.439a.567.567 0 0 0-.01.044l.131.076c.158.092.256.26.256.443v2.654a.51.51 0 0 1-.577.504l.449.259a.512.512 0 0 0 .768-.443v-2.654a.512.512 0 0 0-.256-.443zM20.815 15.555l6.468-3.734a.513.513 0 0 0 .256-.443V8.724a.51.51 0 0 0-.669-.484.513.513 0 0 1 .029.164v2.654a.512.512 0 0 1-.256.443l-6.468 3.734a.602.602 0 0 0-.256.443c-.018.292.195.469.215.486l.613.425a.243.243 0 0 1 .006-.163l.012-.022a.508.508 0 0 1 .05-.848z"/></svg>