<svg xmlns="http://www.w3.org/2000/svg" width="32" height="32" fill="#fff"><path d="M13.364 8.723v2.654c0 .183.098.352.256.443l6.468 3.734a.512.512 0 0 1 0 .887l-6.468 3.734a.513.513 0 0 0-.256.443v2.654c0 .394.427.64.768.443l12.6-7.275a.512.512 0 0 0 0-.887l-12.6-7.275a.512.512 0 0 0-.768.443z"/><path d="m26.732 15.555-12.6-7.275a.508.508 0 0 0-.191-.061l12.151 7.015a.512.512 0 0 1 0 .887l-12.6 7.275c-.032.019-.066.029-.099.04a.512.512 0 0 0 .739.28l12.6-7.275a.512.512 0 0 0 0-.887z"/><path d="M4.692 8.727v2.654c0 .183.098.352.256.443l6.468 3.734a.512.512 0 0 1 0 .887l-6.468 3.734a.513.513 0 0 0-.256.443v2.654c0 .394.427.64.768.443l12.6-7.275a.512.512 0 0 0 0-.887L5.46 8.282a.512.512 0 0 0-.768.443z"/><path d="M18.06 15.559 5.46 8.284a.508.508 0 0 0-.191-.061l12.151 7.015a.512.512 0 0 1 0 .887L4.82 23.4c-.032.019-.066.029-.099.04a.512.512 0 0 0 .739.28l12.6-7.275a.512.512 0 0 0 0-.887z"/></svg>