<svg version="1.0" xmlns="http://www.w3.org/2000/svg" width="400" height="400" viewBox="0 0 300 300"><path d="M0 150v150h300V0H0v150zm124-85c0 2.1-31.5 24.3-36.2 25.5-1.4.4-2.9.2-3.2-.3-.8-1.4 2-20.3 3.6-23.6l1.1-2.6h17.4c10.3 0 17.3.4 17.3 1zm41 6c5.5 3.9 15.4 11.1 22.2 16.1 6.8 4.9 15.8 11.5 20.2 14.6 19 13.6 34.6 26.4 35.3 29.1.5 1.5.8 7 .8 12.3 0 14.9-2.3 16.2-12.6 6.9-6.3-5.6-6.7-5.8-8.3-4.1-.9.9-1.6 2.2-1.6 2.7s3.4 4.7 7.6 9.3c7.9 9 8.9 11.1 8.1 16.9-1.1 8.4-8.9 20.2-13.3 20.2-3.1 0-4.5-2.2-30.6-48.2-11.2-19.7-20.8-35.7-21.5-35.8-.6 0-1.4.4-1.8.9-.3.6 4.7 10.8 11.1 22.8 15 27.8 27.4 51.5 32.6 62.1 3.4 6.9 4 8.8 3.2 11-1.1 3.2-10.6 11-18 14.9-8.4 4.4-8.1 4.9-16.9-27.2-2.6-9.4-5.1-17.4-5.6-18-1.2-1.3-4.5.8-4.1 2.6 7.2 29.3 10.7 45.9 10.3 49.5-.1.6-2.5 2.2-5.3 3.5-4.1 1.7-7.7 2.4-15.5 2.7-9.1.4-10.2.2-11.1-1.4-.5-1.1-1.2-26-1.5-59.7-.3-31.7-.9-58.2-1.2-58.8-.5-.7-1.1-.6-2 .1-1.1.9-1.4 8-1.5 34.8-.1 43-1.5 83.1-2.8 84.4-.6.6-4.7.9-10.4.6-7.4-.3-10.5-.9-15.2-3.1l-5.9-2.7.6-4.3c.3-2.3 2.8-13.6 5.5-25.2 4.6-19 4.9-21.1 3.4-22.2-2-1.6-3.2-1.6-3.7-.1-.2.7-2.9 10.5-6 21.8-6.3 23.2-7 25-8.7 25-.7 0-4.1-1.3-7.5-2.9-7.4-3.5-17.3-12.7-17.3-16 0-2.2 24.3-50.8 39.1-78.2 4.4-8 7.9-15.1 7.9-15.7 0-4.6-4.7 2.1-18.6 26.5-20 35.3-31 53.8-33 55.4-2.4 2-7.8-1.2-10.7-6.3-3.2-5.5-6.1-15.3-5.3-18.2.3-1.2 3.4-5.6 6.8-9.7 9.5-11.3 9.1-10.5 7.8-12.8-.6-1.2-1.4-2.1-1.8-2.1-.4 0-3.6 2.5-7.2 5.5-10.1 8.6-12 7.4-12-8 0-6.5.5-10.5 1.5-12.5 2.1-4.1 22.7-20 68-52.4l19-13.6h17.6l9.9 7zm38.9-5.6c1.4 1.6 4.3 21.9 3.5 24-1.4 3.7-5.7 1.4-26.1-13.9-7-5.3-12.9-10-13.1-10.6-.2-.5 6.6-.9 17.1-.9 13.5 0 17.7.3 18.6 1.4z"/><path d="M94.4 117.1c-13.6 13.6-15.7 16.2-14.8 17.7.6.9 1.5 1.7 2.1 1.7 1.1 0 29.7-31.3 30.1-33 .9-3.9-3-.9-17.4 13.6zM181.7 101.7c-.4.3-.7 1.3-.7 2.1 0 1.5 27.6 32.2 29 32.2.4 0 1.3-.7 2-1.5 1-1.2-1.3-4.1-14.1-17.5-8.4-8.8-15.4-16-15.4-16-.1 0-.5.3-.8.7zM133.3 115.2c-.6.7-3.7 11.3-7 23.6-5.2 19.1-5.8 22.4-4.5 23.4 1.1 1 1.7.8 2.8-.7.8-1 1.4-2.5 1.4-3.3 0-1.2 3.7-17.3 8.5-36.7 1.4-5.8.8-8.9-1.2-6.3zM157 116.7c.1 3.7 10.6 45.7 11.5 46 .6.1 1.6-.1 2.4-.6 1.1-.7.5-4.2-3.7-19.7-2.8-10.4-5.6-20.8-6.2-23.2-1.1-4.2-4-6-4-2.5z"/></svg>