<svg version="1.0" xmlns="http://www.w3.org/2000/svg" width="400" height="400" viewBox="0 0 300 300"><path d="M90.8 63.8c-1.8.4-3.6 4-4.4 9-.3 2.1-.9 5.5-1.3 7.7-.6 3.5-.7 6-.2 9.5.3 2.3 4.4.6 13.3-5.3 14-9.4 26-18.7 25.5-20-.3-1-28.4-1.8-32.9-.9zM138.2 64.3c-2.8 1.5-15.5 10.1-17.6 11.9-1.1 1-2.3 1.8-2.7 1.8-.4 0-1.4.6-2.1 1.3-.7.7-4.2 3.3-7.8 5.7-3.6 2.4-6.9 5-7.3 5.7-.4.7-1.5 1.3-2.2 1.3-.8 0-1.5.4-1.5 1 0 .5-.6 1-1.4 1-.8 0-1.6.4-1.8.8-.2.4-3.4 3.1-7.3 5.9-3.8 2.9-7.4 5.6-8 6-.5.4-2.7 1.9-4.7 3.3-2.1 1.4-3.8 2.9-3.8 3.3 0 .5-.4.5-1 .2-.5-.3-1-.2-1 .3s-2.6 2.9-5.7 5.3c-7.8 5.7-11.8 9.9-12.8 12.9-.4 1.4-.8 6.7-.7 11.9.1 7.1.5 9.7 1.7 11.1 1.6 1.8 1.8 1.8 5.3-.3 2-1.2 4.8-3.3 6.2-4.7 4.9-5 5.6-5.3 7.8-3 2 2.1 2 2.1-.7 4.9-3 3.1-11 12.6-12.8 15-1 1.6-1.1 6.7 0 10.1.2.8.8 3 1.2 4.7.4 1.8 1.4 3.8 2.1 4.4.8.6 1.4 1.6 1.4 2.1 0 1 3.8 5.3 4.8 5.4.4 0 1.5.4 2.5.8 1 .5 2.3.3 3.2-.4 1.4-1.2 13.5-20.5 13.5-21.6 0-.3 1.1-2 2.4-3.7 1.4-1.8 2.6-3.7 2.7-4.2.1-.6.7-1.9 1.4-3s5.4-9.4 10.5-18.5 9.9-17.2 10.6-18c.7-.8 1.3-1.9 1.3-2.3 0-.4 1-2.5 2.3-4.5 1.2-2 2.6-4.5 3-5.5.4-.9 1.4-1.7 2.3-1.7 1.4 0 1.6 2.4.3 4.5-.3.5-2.3 4.1-4.3 8-5.9 10.8-5.9 11-7 11.7-.5.4-.7.8-.2.8.4 0 0 1.2-1 2.7-.9 1.4-1.8 3.2-1.9 4-.1.8-.7 2-1.3 2.7-.6.7-6.1 11.2-12.2 23.2s-12 23.3-13 25c-1 1.7-1.6 3.4-1.2 3.7.3.4.2.7-.4.7-1.1 0-2.1 2.5-2.9 7.6-.5 2.7.1 3.7 5.6 8.7 5.5 5.1 11.9 8.9 17.6 10.3 2.3.6 4.1-1.4 4.7-5.3.1-1 .6-2.4 1-3.1.5-.6.6-1.2.3-1.2s.1-1.8.9-4 1.2-4 1-4c-.2 0 .2-1.5 1-3.4.8-1.8 1.7-4.8 2-6.7.3-1.8.8-3.6 1.1-4.1.3-.5.7-2.1 1-3.6.3-1.5 1-4.3 1.6-6.2.7-1.9 1.2-3.9 1.3-4.4 0-1.5 2-1.7 3.7-.4 1.5 1.2 1.5 1.9-.2 8.8-1.1 4.1-2.2 9.1-2.6 11-.9 5.3-.9 5.4-1.8 6.8-.4.7-.5 1.6-.2 1.9.3.3.1 1.3-.4 2.2-.4.9-1.1 3.7-1.5 6.1-.4 2.5-.9 4.8-1.1 5.2-.3.4-.7 2.7-1 5.1-.5 3.8-.3 4.6 1.9 6 4.1 2.6 12.8 4.5 20.9 4.6 4.3 0 7.9-.3 8.2-.7 1.4-2.3 2.3-31.7 3-95.5.2-14.4.7-23.2 1.3-23.8.8-.8 1.3-.6 1.7.7.5 2 1.5 51.2 1.7 91.9.1 13.2.5 24.8 1 25.7.8 1.5 2.4 1.8 10.7 1.6 5.3-.1 10.2-.4 10.7-.8.6-.3 2.9-1.3 5.3-2 6.5-2 6.8-3.7 3.5-16.5-.8-3.3-1.7-6.9-1.9-8-.2-1.1-.7-3.4-1.1-5-.4-1.7-.7-3.2-.8-3.5-1.6-8-3.8-17-4.5-18.7-.6-1.5-.5-2.5.3-3 2.1-1.3 4.8-1.3 4.6-.1-.1.7.1 2 .4 2.8.6 1.6 4.8 16.9 5.1 18.5.1.5.5 1.6.9 2.2.5.7.6 1.3.3 1.3s.4 2.6 1.5 5.7c1.1 3.2 1.9 5.9 1.9 6 0 .2 0 .4.1.5 0 .2.2 1 .4 1.8.8 3.7 2.6 7.1 4.2 7.7 4.4 1.7 25.3-13.4 25.3-18.4 0-2.7-10.1-22.6-39-76.8-8.5-15.9-8.9-16.9-7.9-18 1.1-1.1 3.7 1.8 6.1 6.5.7 1.4 2.5 4.5 3.9 7 8.2 14 11.3 19.5 11 19.9-.1.2.1.7.6 1 .8.5 2.8 3.9 10.1 17.1 5.3 9.6 15.5 26.7 17.8 29.7 1.7 2.3 2.9 3 4.4 2.6 3.1-.8 8.7-8 11-14 2.1-5.5 2.7-14.3 1.1-14.3-.5 0-1.2-.8-1.5-1.8-.3-.9-3.5-4.9-7.1-8.7-6.8-7.3-7.3-8.3-5.3-10.3s3.5-1.4 8.4 3.7c2.7 2.7 5.2 4.7 5.6 4.5.4-.3.8 0 .8.5 0 1.7 3.6 1.3 5.1-.5 1.5-1.8 2-18.1.7-23.1-.6-2.2-2.6-4.6-6.3-7.5-3-2.3-5.5-4.6-5.5-5.1 0-.4-.4-.5-1-.2-.5.3-1 .3-1-.2 0-.4-2.3-2.4-5-4.3s-5-3.8-5-4.3c0-.4-.7-.7-1.5-.7-.9 0-1.8-.7-2.1-1.5-.4-.8-1.1-1.5-1.6-1.5s-2.9-1.6-5.2-3.5c-2.4-1.9-4.8-3.5-5.5-3.5-.6 0-1.1-.4-1.1-.8 0-.5-3.5-3.3-7.7-6.2-4.3-3-8.4-6-9.1-6.7-.7-.7-2.6-2-4.2-3-1.7-.9-3-2.1-3-2.5 0-.4-.5-.8-1-.8-.6 0-3.6-1.9-6.7-4.3-3.1-2.3-7-5-8.7-6.1-1.7-1-3.3-2.2-3.6-2.6-1.5-2.2-16.2-3.5-19.8-1.7zm-27.4 40.9c-.9 1.3-3.1 3.9-4.9 5.8-1.9 1.9-6.9 7.4-11.2 12.1-12.9 14.4-12.2 13.8-14 12.7-1-.5-1.7-1.4-1.7-1.9 0-.6 4-5.1 9-10.1 4.9-5 11.4-11.7 14.5-14.9 3-3.3 5.9-5.9 6.5-5.9.5 0 1-.5 1-1.2 0-.9.3-.9 1.1-.1.9.9.8 1.8-.3 3.5zm93.7 18.9c7.4 7.5 8.3 8.8 7.2 10.3-1.2 1.6-4.7 1.4-4.7-.3 0-.4-1.9-2.7-4.2-5.2-2.4-2.5-6.7-7.2-9.6-10.5-3-3.2-6.9-7.6-8.8-9.7-2.6-2.8-3.3-4.3-2.8-5.9.6-1.9 1.4-1.3 7.6 5.3 3.8 4.1 10.7 11.3 15.3 16zm-69.1-6.7c-.2.6-.6 2.2-.8 3.6-1.1 5.2-9.9 41.5-10.1 41.8-.2.2-1.2.1-2.3-.2-1.7-.6-1.9-1.1-1.1-4.5.5-2.1 1.4-5.1 2-6.7.6-1.6 1.3-4 1.5-5.4.3-1.4 1-4.3 1.6-6.5.7-2.2 1.2-4.2 1.3-4.5 3-14 6.1-22.2 7.5-20 .5.7.6 1.8.4 2.4zm25.2.3c1.2 5.3 6.4 24.8 7.3 27.8 3.6 11.3 4.4 15.7 3.1 16.5-2 1.3-3.7.1-4.3-2.8-.3-1.5-.8-3.8-1.1-5.2-.6-2.4-.9-3.8-2-8.9-.3-1.3-1-3.8-1.5-5.5-.6-1.7-1.2-4.5-1.5-6.1-.2-1.7-.5-3-.6-3-.1 0-.4-1.6-.7-3.5-.2-1.9-1-5.1-1.8-7.2-.7-2-1-4-.7-4.3 1.4-1.3 3.2-.2 3.8 2.2zM168.3 64.4c-.3.4-.1 1.1.4 1.5.6.3 2.8 2 4.9 3.8C186.8 80.4 202.4 91 205 91c2.3 0 2.8-1.4 2.4-7.2-.5-9.4-2.3-17.5-4.1-19-1.7-1.4-34.2-1.8-35-.4z"/></svg>