<?xml version="1.0" standalone="no"?>
<!DOCTYPE svg PUBLIC "-//W3C//DTD SVG 20010904//EN"
 "http://www.w3.org/TR/2001/REC-SVG-20010904/DTD/svg10.dtd">
<svg version="1.0" xmlns="http://www.w3.org/2000/svg"
 width="300.000000pt" height="300.000000pt" viewBox="0 0 300.000000 300.000000"
 preserveAspectRatio="xMidYMid meet">
<metadata>
Created by potrace 1.14, written by Peter Selinger 2001-2017
</metadata>
<g transform="translate(0.000000,300.000000) scale(0.100000,-0.100000)"
fill="#000000" stroke="none">
<path d="M908 2362 c-18 -4 -36 -40 -44 -90 -3 -21 -9 -55 -13 -77 -6 -35 -7
-60 -2 -95 3 -23 44 -6 133 53 140 94 260 187 255 200 -3 10 -284 18 -329 9z"/>
<path d="M1382 2357 c-28 -15 -155 -101 -176 -119 -11 -10 -23 -18 -27 -18 -4
0 -14 -6 -21 -13 -7 -7 -42 -33 -78 -57 -36 -24 -69 -50 -73 -57 -4 -7 -15
-13 -22 -13 -8 0 -15 -4 -15 -10 0 -5 -6 -10 -14 -10 -8 0 -16 -4 -18 -8 -2
-4 -34 -31 -73 -59 -38 -29 -74 -56 -80 -60 -5 -4 -27 -19 -47 -33 -21 -14
-38 -29 -38 -33 0 -5 -4 -5 -10 -2 -5 3 -10 2 -10 -3 0 -5 -26 -29 -57 -53
-78 -57 -118 -99 -128 -129 -4 -14 -8 -67 -7 -119 1 -71 5 -97 17 -111 16 -18
18 -18 53 3 20 12 48 33 62 47 49 50 56 53 78 30 20 -21 20 -21 -7 -49 -30
-31 -110 -126 -128 -150 -10 -16 -11 -67 0 -101 2 -8 8 -30 12 -47 4 -18 14
-38 21 -44 8 -6 14 -16 14 -21 0 -10 38 -53 48 -54 4 0 15 -4 25 -8 10 -5 23
-3 32 4 14 12 135 205 135 216 0 3 11 20 24 37 14 18 26 37 27 42 1 6 7 19 14
30 7 11 54 94 105 185 51 91 99 172 106 180 7 8 13 19 13 23 0 4 10 25 23 45
12 20 26 45 30 55 4 9 14 17 23 17 14 0 16 -24 3 -45 -3 -5 -23 -41 -43 -80
-59 -108 -59 -110 -70 -117 -5 -4 -7 -8 -2 -8 4 0 0 -12 -10 -27 -9 -14 -18
-32 -19 -40 -1 -8 -7 -20 -13 -27 -6 -7 -61 -112 -122 -232 -61 -120 -120
-233 -130 -250 -10 -17 -16 -34 -12 -37 3 -4 2 -7 -4 -7 -11 0 -21 -25 -29
-76 -5 -27 1 -37 56 -87 55 -51 119 -89 176 -103 23 -6 41 14 47 53 1 10 6 24
10 31 5 6 6 12 3 12 -3 0 1 18 9 40 8 22 12 40 10 40 -2 0 2 15 10 34 8 18 17
48 20 67 3 18 8 36 11 41 3 5 7 21 10 36 3 15 10 43 16 62 7 19 12 39 13 44 0
15 20 17 37 4 15 -12 15 -19 -2 -88 -11 -41 -22 -91 -26 -110 -9 -53 -9 -54
-18 -68 -4 -7 -5 -16 -2 -19 3 -3 1 -13 -4 -22 -4 -9 -11 -37 -15 -61 -4 -25
-9 -48 -11 -52 -3 -4 -7 -27 -10 -51 -5 -38 -3 -46 19 -60 41 -26 128 -45 209
-46 43 0 79 3 82 7 14 23 23 317 30 955 2 144 7 232 13 238 8 8 13 6 17 -7 5
-20 15 -512 17 -919 1 -132 5 -248 10 -257 8 -15 24 -18 107 -16 53 1 102 4
107 8 6 3 29 13 53 20 65 20 68 37 35 165 -8 33 -17 69 -19 80 -2 11 -7 34
-11 50 -4 17 -7 32 -8 35 -16 80 -38 170 -45 187 -6 15 -5 25 3 30 21 13 48
13 46 1 -1 -7 1 -20 4 -28 6 -16 48 -169 51 -185 1 -5 5 -16 9 -22 5 -7 6 -13
3 -13 -3 0 4 -26 15 -57 11 -32 19 -59 19 -60 0 -2 0 -4 1 -5 0 -2 2 -10 4
-18 8 -37 26 -71 42 -77 44 -17 253 134 253 184 0 27 -101 226 -390 768 -85
159 -89 169 -79 180 11 11 37 -18 61 -65 7 -14 25 -45 39 -70 82 -140 113
-195 110 -199 -1 -2 1 -7 6 -10 8 -5 28 -39 101 -171 53 -96 155 -267 178
-297 17 -23 29 -30 44 -26 31 8 87 80 110 140 21 55 27 143 11 143 -5 0 -12 8
-15 18 -3 9 -35 49 -71 87 -68 73 -73 83 -53 103 20 20 35 14 84 -37 27 -27
52 -47 56 -45 4 3 8 0 8 -5 0 -17 36 -13 51 5 15 18 20 181 7 231 -6 22 -26
46 -63 75 -30 23 -55 46 -55 51 0 4 -4 5 -10 2 -5 -3 -10 -3 -10 2 0 4 -23 24
-50 43 -27 19 -50 38 -50 43 0 4 -7 7 -15 7 -9 0 -18 7 -21 15 -4 8 -11 15
-16 15 -5 0 -29 16 -52 35 -24 19 -48 35 -55 35 -6 0 -11 4 -11 8 0 5 -35 33
-77 62 -43 30 -84 60 -91 67 -7 7 -26 20 -42 30 -17 9 -30 21 -30 25 0 4 -5 8
-10 8 -6 0 -36 19 -67 43 -31 23 -70 50 -87 61 -17 10 -33 22 -36 26 -15 22
-162 35 -198 17z m-274 -409 c-9 -13 -31 -39 -49 -58 -19 -19 -69 -74 -112
-121 -129 -144 -122 -138 -140 -127 -10 5 -17 14 -17 19 0 6 40 51 90 101 49
50 114 117 145 149 30 33 59 59 65 59 5 0 10 5 10 12 0 9 3 9 11 1 9 -9 8 -18
-3 -35z m937 -189 c74 -75 83 -88 72 -103 -12 -16 -47 -14 -47 3 0 4 -19 27
-42 52 -24 25 -67 72 -96 105 -30 32 -69 76 -88 97 -26 28 -33 43 -28 59 6 19
14 13 76 -53 38 -41 107 -113 153 -160z m-691 67 c-2 -6 -6 -22 -8 -36 -11
-52 -99 -415 -101 -418 -2 -2 -12 -1 -23 2 -17 6 -19 11 -11 45 5 21 14 51 20
67 6 16 13 40 15 54 3 14 10 43 16 65 7 22 12 42 13 45 30 140 61 222 75 200
5 -7 6 -18 4 -24z m252 -3 c12 -53 64 -248 73 -278 36 -113 44 -157 31 -165
-20 -13 -37 -1 -43 28 -3 15 -8 38 -11 52 -6 24 -9 38 -20 89 -3 13 -10 38
-15 55 -6 17 -12 45 -15 61 -2 17 -5 30 -6 30 -1 0 -4 16 -7 35 -2 19 -10 51
-18 72 -7 20 -10 40 -7 43 14 13 32 2 38 -22z"/>
<path d="M1683 2356 c-3 -4 -1 -11 4 -15 6 -3 28 -20 49 -38 132 -107 288
-213 314 -213 23 0 28 14 24 72 -5 94 -23 175 -41 190 -17 14 -342 18 -350 4z"/>
</g>
</svg>
