<?xml version="1.0" standalone="no"?>
<!DOCTYPE svg PUBLIC "-//W3C//DTD SVG 20010904//EN"
 "http://www.w3.org/TR/2001/REC-SVG-20010904/DTD/svg10.dtd">
<svg version="1.0" xmlns="http://www.w3.org/2000/svg"
 width="284.000000pt" height="284.000000pt" viewBox="0 0 284.000000 284.000000"
 preserveAspectRatio="xMidYMid meet">
<metadata>
Created by potrace 1.14, written by Peter Selinger 2001-2017
</metadata>
<g transform="translate(0.000000,284.000000) scale(0.100000,-0.100000)"
fill="#000000" stroke="none">
<path d="M665 2655 c-68 -20 -96 -60 -110 -155 -4 -29 -15 -96 -20 -120 -8
-42 -8 -116 -1 -129 9 -14 62 -6 86 13 8 7 41 28 73 46 31 19 57 38 57 42 0 4
5 8 10 8 8 0 102 63 145 97 6 5 33 25 62 45 97 69 143 112 143 134 0 7 -17 18
-38 23 -50 14 -356 10 -407 -4z"/>
<path d="M1330 2644 c-19 -13 -40 -23 -47 -23 -6 -1 -13 -5 -15 -9 -1 -4 -48
-38 -103 -76 -55 -37 -116 -80 -136 -95 -20 -14 -74 -53 -120 -86 -94 -66 -92
-65 -135 -100 -18 -14 -35 -25 -39 -25 -3 0 -12 -6 -19 -12 -8 -7 -23 -20 -35
-28 -12 -8 -62 -44 -111 -80 -48 -36 -98 -72 -110 -80 -94 -64 -317 -239 -376
-295 -66 -62 -74 -93 -71 -257 3 -133 5 -142 26 -159 13 -11 27 -19 31 -19 13
0 88 54 139 102 74 69 80 71 109 37 26 -32 26 -33 -23 -84 -11 -11 -40 -44
-65 -74 -25 -29 -50 -58 -55 -65 -33 -35 -66 -87 -70 -107 -11 -58 60 -255
111 -306 63 -63 110 -69 148 -19 14 19 26 37 26 39 0 3 29 52 65 111 36 58 65
111 65 116 0 6 5 10 10 10 6 0 10 5 10 11 0 6 14 31 32 57 18 26 31 48 30 50
-1 1 20 41 48 87 27 47 50 90 50 95 0 6 5 10 10 10 6 0 10 4 10 10 0 5 41 80
90 166 50 85 90 158 90 161 0 4 6 14 14 22 7 9 28 42 45 74 72 131 87 152 109
153 23 1 32 -29 12 -41 -5 -3 -10 -15 -10 -26 0 -10 -4 -19 -9 -19 -5 0 -14
-12 -20 -27 -6 -16 -28 -59 -49 -98 -22 -38 -51 -90 -64 -115 -48 -85 -121
-225 -231 -440 -60 -118 -128 -251 -150 -295 -23 -44 -45 -81 -49 -83 -4 -2
-8 -9 -8 -15 0 -7 -14 -39 -30 -71 -17 -33 -37 -80 -45 -104 -14 -41 -14 -46
4 -76 23 -37 92 -103 136 -131 17 -11 32 -22 35 -26 11 -14 140 -70 149 -65 5
3 11 2 13 -3 8 -21 46 9 53 41 3 18 17 69 30 113 13 44 38 130 55 190 33 115
34 119 49 175 28 110 41 154 45 157 3 3 19 2 36 -2 30 -7 32 -9 25 -39 -3 -17
-8 -42 -10 -56 -2 -14 -27 -122 -55 -240 -58 -249 -60 -256 -65 -291 -2 -14
-8 -37 -13 -50 -18 -51 -1 -82 62 -113 29 -14 58 -26 64 -26 6 0 32 -7 58 -16
26 -9 59 -18 73 -21 57 -11 117 -19 129 -17 6 1 19 2 27 3 22 2 42 49 50 121
10 95 21 639 29 1400 l2 235 25 0 24 0 2 -155 c1 -85 5 -414 8 -730 8 -825 7
-817 34 -843 18 -19 32 -22 94 -21 40 0 84 3 100 7 15 4 38 9 52 12 14 3 56
17 93 31 37 14 74 28 83 31 19 5 37 41 33 63 -1 8 -5 32 -9 54 -4 21 -8 46
-10 55 -6 32 -36 156 -46 191 -5 19 -11 44 -13 55 -1 11 -6 31 -9 45 -9 33
-46 189 -52 215 -2 11 -8 34 -13 50 -12 41 -5 55 28 55 36 0 37 -2 67 -109 13
-47 26 -93 28 -101 3 -8 11 -40 19 -70 8 -30 21 -78 29 -107 8 -28 12 -54 9
-57 -3 -3 -1 -6 5 -6 6 0 13 -12 16 -28 21 -109 50 -185 77 -199 19 -9 32 -8
64 5 39 15 135 69 146 82 3 3 25 21 50 40 76 60 109 101 110 138 0 22 -26 83
-79 185 -73 141 -99 191 -230 440 -26 50 -65 124 -87 162 -21 39 -52 97 -68
130 -17 33 -33 62 -36 65 -3 3 -18 30 -34 60 -15 30 -45 87 -66 127 -21 39
-35 74 -32 77 3 3 0 6 -6 6 -6 0 -20 21 -32 47 -18 41 -19 48 -6 62 12 12 18
12 30 1 9 -7 16 -19 16 -26 0 -8 5 -14 10 -14 6 0 10 -4 10 -9 0 -13 111 -204
122 -212 6 -3 10 -9 10 -12 0 -19 12 -47 19 -47 5 0 9 -4 9 -9 0 -5 26 -53 58
-108 32 -54 72 -123 89 -153 16 -30 40 -72 52 -92 11 -21 30 -55 42 -75 12
-21 44 -76 71 -123 28 -47 69 -116 92 -155 22 -38 44 -71 48 -73 5 -2 8 -9 8
-16 0 -7 15 -30 33 -51 27 -32 38 -37 59 -32 58 15 153 152 182 262 7 26 10
96 5 115 -6 23 -60 102 -94 136 -43 44 -134 144 -141 155 -3 5 9 23 27 40 l32
31 60 -59 c34 -32 64 -60 67 -64 20 -21 78 -56 92 -56 9 0 26 17 37 37 19 34
21 51 18 176 -2 108 -6 146 -20 171 -9 17 -61 66 -114 108 -54 42 -108 85
-121 96 -12 10 -26 19 -31 19 -5 0 -11 4 -13 8 -1 4 -43 37 -93 72 -49 36 -92
67 -95 70 -3 3 -21 17 -40 30 -19 14 -39 28 -45 32 -61 49 -186 138 -194 138
-5 0 -11 4 -13 8 -1 5 -52 44 -113 88 -60 43 -111 82 -113 86 -2 4 -9 8 -15 8
-7 0 -24 11 -39 25 -15 14 -30 25 -33 25 -6 0 -65 42 -126 89 -14 10 -53 33
-87 51 -75 38 -139 39 -192 4z m-408 -590 c-8 -15 -88 -106 -154 -175 -23 -25
-74 -81 -113 -124 -38 -43 -92 -101 -118 -128 -46 -48 -48 -49 -67 -32 -11 10
-20 25 -20 32 0 13 73 90 364 385 81 82 91 89 103 73 7 -10 9 -24 5 -31z
m1111 -48 c45 -47 142 -146 215 -221 72 -75 132 -142 132 -149 0 -7 -9 -21
-21 -32 -21 -19 -21 -18 -77 42 -68 73 -216 234 -255 278 -15 17 -46 50 -67
74 -37 40 -49 70 -33 85 13 14 25 5 106 -77z m-768 -135 c-3 -14 -7 -35 -9
-46 -2 -11 -23 -99 -46 -195 -23 -96 -44 -182 -45 -190 -2 -8 -4 -16 -5 -17
-3 -4 -4 -8 -19 -78 -28 -133 -30 -137 -59 -133 -23 3 -27 8 -26 33 1 35 10
80 19 95 3 5 8 18 10 27 3 17 44 171 66 253 5 19 11 42 13 50 17 67 59 207 67
222 15 27 41 11 34 -21z m366 -15 c1 -18 15 -73 69 -271 12 -44 24 -88 26 -97
8 -34 13 -54 34 -123 37 -126 36 -149 -5 -153 -24 -2 -34 18 -50 98 -4 19 -53
227 -62 260 -3 14 -7 31 -9 39 -1 7 -8 34 -14 60 -6 25 -12 55 -14 66 -3 11
-11 49 -20 84 -12 50 -12 68 -3 79 9 12 14 11 29 -8 10 -12 18 -27 19 -34z"/>
<path d="M1750 2653 c-26 -18 -25 -27 3 -55 23 -24 184 -148 192 -148 4 0 76
-53 170 -126 82 -63 184 -99 186 -65 6 65 -13 270 -27 292 -3 5 -7 19 -9 30
-7 33 -34 58 -79 71 -63 17 -411 18 -436 1z"/>
</g>
</svg>
