<?xml version="1.0" standalone="no"?>
<!DOCTYPE svg PUBLIC "-//W3C//DTD SVG 20010904//EN"
 "http://www.w3.org/TR/2001/REC-SVG-20010904/DTD/svg10.dtd">
<svg version="1.0" xmlns="http://www.w3.org/2000/svg"
 width="300.000000pt" height="300.000000pt" viewBox="0 0 300.000000 300.000000"
 preserveAspectRatio="xMidYMid meet">
<metadata>
Created by potrace 1.14, written by Peter Selinger 2001-2017
</metadata>
<g transform="translate(0.000000,300.000000) scale(0.100000,-0.100000)"
fill="#000000" stroke="none">
<path d="M0 1500 l0 -1500 1500 0 1500 0 0 1500 0 1500 -1500 0 -1500 0 0
-1500z m1240 850 c0 -21 -315 -243 -362 -255 -14 -4 -29 -2 -32 3 -8 14 20
203 36 236 l11 26 174 0 c103 0 173 -4 173 -10z m410 -60 c55 -39 154 -111
222 -161 68 -49 158 -115 202 -146 190 -136 346 -264 353 -291 5 -15 8 -70 8
-123 0 -149 -23 -162 -126 -69 -63 56 -67 58 -83 41 -9 -9 -16 -22 -16 -27 0
-5 34 -47 76 -93 79 -90 89 -111 81 -169 -11 -84 -89 -202 -133 -202 -31 0
-45 22 -306 482 -112 197 -208 357 -215 358 -6 0 -14 -4 -18 -9 -3 -6 47 -108
111 -228 150 -278 274 -515 326 -621 34 -69 40 -88 32 -110 -11 -32 -106 -110
-180 -149 -84 -44 -81 -49 -169 272 -26 94 -51 174 -56 180 -12 13 -45 -8 -41
-26 72 -293 107 -459 103 -495 -1 -6 -25 -22 -53 -35 -41 -17 -77 -24 -155
-27 -91 -4 -102 -2 -111 14 -5 11 -12 260 -15 597 -3 317 -9 582 -12 588 -5 7
-11 6 -20 -1 -11 -9 -14 -80 -15 -348 -1 -430 -15 -831 -28 -844 -6 -6 -47 -9
-104 -6 -74 3 -105 9 -152 31 l-59 27 6 43 c3 23 28 136 55 252 46 190 49 211
34 222 -20 16 -32 16 -37 1 -2 -7 -29 -105 -60 -218 -63 -232 -70 -250 -87
-250 -7 0 -41 13 -75 29 -74 35 -173 127 -173 160 0 22 243 508 391 782 44 80
79 151 79 157 0 46 -47 -21 -186 -265 -200 -353 -310 -538 -330 -554 -24 -20
-78 12 -107 63 -32 55 -61 153 -53 182 3 12 34 56 68 97 95 113 91 105 78 128
-6 12 -14 21 -18 21 -4 0 -36 -25 -72 -55 -101 -86 -120 -74 -120 80 0 65 5
105 15 125 21 41 227 200 680 524 l190 136 88 0 88 0 99 -70z m389 56 c14 -16
43 -219 35 -240 -14 -37 -57 -14 -261 139 -70 53 -129 100 -131 106 -2 5 66 9
171 9 135 0 177 -3 186 -14z"/>
<path d="M944 1829 c-136 -136 -157 -162 -148 -177 6 -9 15 -17 21 -17 11 0
297 313 301 330 9 39 -30 9 -174 -136z"/>
<path d="M1817 1983 c-4 -3 -7 -13 -7 -21 0 -15 276 -322 290 -322 4 0 13 7
20 15 10 12 -13 41 -141 175 -84 88 -154 160 -154 160 -1 0 -5 -3 -8 -7z"/>
<path d="M1333 1848 c-6 -7 -37 -113 -70 -236 -52 -191 -58 -224 -45 -234 11
-10 17 -8 28 7 8 10 14 25 14 33 0 12 37 173 85 367 14 58 8 89 -12 63z"/>
<path d="M1570 1833 c1 -37 106 -457 115 -460 6 -1 16 1 24 6 11 7 5 42 -37
197 -28 104 -56 208 -62 232 -11 42 -40 60 -40 25z"/>
</g>
</svg>
